<svg id="Layer_1" data-name="Layer 1" xmlns="http://www.w3.org/2000/svg" xmlns:xlink="http://www.w3.org/1999/xlink" viewBox="0 0 500 500"><defs><style>.cls-1{fill:url(#linear-gradient);}.cls-2{fill:#fff;}</style><linearGradient id="linear-gradient" x1="38.09" y1="490.73" x2="456.74" y2="14.42" gradientUnits="userSpaceOnUse"><stop offset="0" stop-color="#ff8e3c"/><stop offset="1" stop-color="#d9376e"/></linearGradient></defs><path class="cls-1" d="M386.62,0H78.26A78.58,78.58,0,0,0-.32,78.58V421.42A78.58,78.58,0,0,0,78.26,500H421.09a78.59,78.59,0,0,0,78.59-78.58V114.76A26.75,26.75,0,0,0,492,96L405.72,8A26.76,26.76,0,0,0,386.62,0Z" transform="translate(0.32 0)"/><path class="cls-2" d="M423.54,474.51c-23.47,27-47.58-1.66-47.58-1.66l-75.49-85.26s-10.52-12.13-2.05-21.88,21.95-1,21.95-1l94.92,62.92S447,447.52,423.54,474.51Z" transform="translate(0.32 0)"/><path class="cls-2" d="M308.46,361.1h0Z" transform="translate(0.32 0)"/><path class="cls-2" d="M307.34,361.15h0Z" transform="translate(0.32 0)"/><path class="cls-2" d="M311,361.27l-.11,0Z" transform="translate(0.32 0)"/><path class="cls-2" d="M312.22,361.48l-.33-.07Z" transform="translate(0.32 0)"/><path class="cls-2" d="M309.86,361.15l-.31,0Z" transform="translate(0.32 0)"/><path class="cls-2" d="M306.12,361.31l-.31.06Z" transform="translate(0.32 0)"/><path class="cls-2" d="M302.25,362.63c-.09.05-.19.09-.28.15C302.06,362.72,302.16,362.68,302.25,362.63Z" transform="translate(0.32 0)"/><polygon class="cls-2" points="320.69 364.69 320.7 364.7 360.86 391.32 360.86 391.32 320.7 364.7 320.69 364.69"/><path class="cls-2" d="M300.86,363.48l-.19.14Z" transform="translate(0.32 0)"/><path class="cls-2" d="M304.82,361.6l-.21,0Z" transform="translate(0.32 0)"/><path class="cls-2" d="M313.21,361.7l-.33-.08Z" transform="translate(0.32 0)"/><path class="cls-2" d="M303.45,362.06l-.27.12Z" transform="translate(0.32 0)"/><path class="cls-2" d="M319.44,364.15l-.13-.07Z" transform="translate(0.32 0)"/><path class="cls-2" d="M320.17,364.57l-.08-.05Z" transform="translate(0.32 0)"/><path class="cls-2" d="M319.9,364.41l-.1-.06Z" transform="translate(0.32 0)"/><path class="cls-2" d="M314.14,362l-.23-.07Z" transform="translate(0.32 0)"/><path class="cls-2" d="M319,363.91l-.19-.1Z" transform="translate(0.32 0)"/><path class="cls-2" d="M293,394.21l0,0,0,0c-5.61-6.47-13.26-22.1-2-35a22.85,22.85,0,0,1,17.73-8h0c8.92,0,16.38,4.67,17.21,5.21l0,0,0,0,41.55,27.55a156,156,0,1,0-49.91,38ZM196.53,281A53.47,53.47,0,1,1,250,334.47,53.47,53.47,0,0,1,196.53,281Z" transform="translate(0.32 0)"/><path class="cls-2" d="M299.47,364.64l.29-.27Z" transform="translate(0.32 0)"/><path class="cls-2" d="M320.32,364.66l0,0Z" transform="translate(0.32 0)"/><path class="cls-2" d="M315.26,362.31l-.26-.09Z" transform="translate(0.32 0)"/><path class="cls-2" d="M318.43,363.63l-.21-.11Z" transform="translate(0.32 0)"/><path class="cls-2" d="M316.14,362.63l-.3-.12Z" transform="translate(0.32 0)"/><path class="cls-2" d="M316.91,362.93l-.26-.1Z" transform="translate(0.32 0)"/><path class="cls-2" d="M317.7,363.28l-.15-.07Z" transform="translate(0.32 0)"/><rect class="cls-2" x="121.79" width="256.42" height="90.06" rx="15.93"/></svg>